<?xml version="1.0" encoding="iso-8859-1"?>
<!-- Generator: Adobe Illustrator 19.0.0, SVG Export Plug-In . SVG Version: 6.00 Build 0)  -->
<svg version="1.1" id="Capa_1" xmlns="http://www.w3.org/2000/svg" xmlns:xlink="http://www.w3.org/1999/xlink" x="0px" y="0px"
	 viewBox="0 0 409.078 409.078" style="enable-background:new 0 0 409.078 409.078;" xml:space="preserve">
<path style="fill:#1185E0;" d="M393.404,9.665H126.433c-8.882,0-15.673,6.792-15.673,15.673v305.633h31.347V150.204h235.624v102.922
	h31.347V25.339C409.078,16.457,402.286,9.665,393.404,9.665z M142.106,118.857V41.012h235.624v77.845H142.106z"/>
<g>
	<path style="fill:#4DCFE0;" d="M337.502,326.792c-39.184,0-71.053-31.869-71.053-71.053s31.869-71.053,71.053-71.053
		s71.053,31.869,71.053,71.053S376.686,326.792,337.502,326.792z M337.502,216.033c-21.943,0-39.706,17.763-39.706,39.706
		s17.763,39.706,39.706,39.706s39.706-17.763,39.706-39.706C377.208,233.796,359.445,216.033,337.502,216.033z"/>
	<path style="fill:#4DCFE0;" d="M71.053,399.412C31.869,399.412,0,367.543,0,328.359s31.869-71.053,71.053-71.053
		s71.053,31.869,71.053,71.053S110.237,399.412,71.053,399.412z M71.053,288.653c-21.943,0-39.706,17.763-39.706,39.706
		s17.763,39.706,39.706,39.706s39.706-17.763,39.706-39.706S92.996,288.653,71.053,288.653z"/>
</g>
<g>
</g>
<g>
</g>
<g>
</g>
<g>
</g>
<g>
</g>
<g>
</g>
<g>
</g>
<g>
</g>
<g>
</g>
<g>
</g>
<g>
</g>
<g>
</g>
<g>
</g>
<g>
</g>
<g>
</g>
</svg>
