<svg id="Layer_1" enable-background="new 0 0 511.334 511.334" height="512" viewBox="0 0 511.334 511.334" width="512" xmlns="http://www.w3.org/2000/svg"><path d="m454.863 20.618c-5.988-9.932-18.895-13.13-28.827-7.142l-51.928 31.307c-67.331-78.976-195.96-48.368-220.982 51.995-17.069 68.46 24.517 137.688 92.989 154.76 100.535 25.06 187.905-74.487 149.65-170.77l51.956-31.323c9.933-5.988 13.131-18.895 7.142-28.827z"/><path d="m503.185 132.36c-3.764-2.933-8.476-4.383-13.249-4.383h-26.462c-8.557 0-15.733 6.514-16.494 15.038-7.77 87.056-80.904 155.298-169.98 155.298s-162.21-68.242-169.98-155.298c-.761-8.524-7.937-15.038-16.494-15.038l-5.943-66.207c-.972-10.827-10.046-19.123-20.916-19.123h-42.163c-11.387 0-21.085 8.854-21.49 20.233-.426 11.948 9.134 21.767 20.986 21.767h23.468l23.018 256.439c.005.302-.01.599.007.903.047.806.152 1.594.286 2.37l.842 9.376c.016.177.034.354.055.529 2.552 22.11 13.851 41.267 30.19 54.21-9.213 11.766-14.399 26.829-13.412 43.107 1.954 32.217 28.188 58.11 60.427 59.657 36.518 1.752 66.787-27.451 66.787-63.592 0-7.605-1.345-14.9-3.801-21.667h114.936c-2.744 7.558-4.101 15.776-3.746 24.348 1.355 32.742 27.82 59.375 60.554 60.914 36.207 1.703 66.254-27.022 66.719-62.753.464-35.635-28.94-64.509-64.578-64.509h-233.61c-15.952 0-29.853-9.624-35.853-23.646l335.608-19.724c9.162-.538 16.914-6.966 19.141-15.87l42.67-170.67c1.983-7.936-.799-16.47-7.523-21.709z"/></svg>