<svg height="512pt" viewBox="0 -32 512 512" width="512pt" xmlns="http://www.w3.org/2000/svg"><path d="m504.5 17.5v413.050781c0 5.519531-4.480469 10-10 10h-477c-5.519531 0-10-4.480469-10-10v-413.050781c0-5.519531 4.480469-10 10-10h477c5.519531 0 10 4.480469 10 10zm0 0" fill="#e3f4ff"/><path d="m504.5 17.5v413.050781c0 5.519531-4.480469 10-10 10h-29.671875c5.523437 0 10-4.480469 10-10v-413.050781c0-5.519531-4.476563-10-10-10h29.671875c5.519531 0 10 4.480469 10 10zm0 0" fill="#bddff4"/><path d="m504.5 17.5v53.570312h-497v-53.570312c0-5.519531 4.480469-10 10-10h477c5.519531 0 10 4.480469 10 10zm0 0" fill="#618baa"/><path d="m504.5 17.5v53.570312h-29.671875v-53.570312c0-5.519531-4.476563-10-10-10h29.671875c5.519531 0 10 4.480469 10 10zm0 0" fill="#4e7693"/><path d="m153.390625 7.5v63.570312h-145.890625v-53.570312c0-5.519531 4.480469-10 10-10zm0 0" fill="#fc3e81"/><path d="m461.058594 113.125v229.789062c0 4.660157-3.777344 8.441407-8.4375 8.441407h-393.242188c-4.660156 0-8.4375-3.78125-8.4375-8.441407v-229.789062c0-4.652344 3.777344-8.429688 8.4375-8.429688h393.242188c4.660156 0 8.4375 3.777344 8.4375 8.429688zm0 0" fill="#fc3e81"/><path d="m461.058594 113.132812v229.789063c0 4.652344-3.777344 8.433594-8.433594 8.433594h-24.457031c4.664062 0 8.433593-3.78125 8.433593-8.433594v-229.789063c0-4.664062-3.769531-8.433593-8.433593-8.433593h24.457031c4.65625 0 8.433594 3.769531 8.433594 8.433593zm0 0" fill="#f01054"/><path d="m461.058594 297.023438v45.902343c0 4.648438-3.777344 8.429688-8.4375 8.429688h-393.242188c-4.660156 0-8.4375-3.78125-8.4375-8.441407v-45.890624zm0 0" fill="#38627c"/><path d="m461.058594 297.023438v45.902343c0 4.648438-3.777344 8.429688-8.4375 8.429688h-24.449219c4.65625 0 8.429687-3.78125 8.429687-8.429688v-45.902343zm0 0" fill="#295368"/><path d="m216.085938 175.445312v56.011719c0 7.695313 8.332031 12.507813 15 8.660157l48.519531-28.003907c6.667969-3.851562 6.667969-13.472656 0-17.324219l-48.519531-28.003906c-6.667969-3.847656-15 .960938-15 8.660156zm0 0" fill="#e3f4ff"/><path d="m494.5 0h-477c-9.648438 0-17.5 7.851562-17.5 17.5v100.328125c0 4.144531 3.355469 7.5 7.5 7.5s7.5-3.355469 7.5-7.5v-39.257813h482v351.976563c0 1.378906-1.121094 2.5-2.5 2.5h-477c-1.378906 0-2.5-1.121094-2.5-2.5v-280.058594c0-4.140625-3.355469-7.5-7.5-7.5s-7.5 3.359375-7.5 7.5v280.058594c0 9.648437 7.851562 17.5 17.5 17.5h477c9.648438 0 17.5-7.851563 17.5-17.5v-413.046875c0-9.648438-7.851562-17.5-17.5-17.5zm-479.5 17.5c0-1.378906 1.121094-2.5 2.5-2.5h128.390625v48.570312h-130.890625zm145.890625 46.066406v-48.566406h333.609375c1.378906 0 2.5 1.121094 2.5 2.5v46.070312h-336.109375zm0 0"/><path d="m54.007812 31.707031h-.105468c-.011719 0-.023438 0-.035156 0-4.125 0-7.476563 3.335938-7.5 7.464844-.019532 4.140625 3.324218 7.515625 7.46875 7.535156h.101562.039062c4.125 0 7.476563-3.335937 7.496094-7.464843.019532-4.144532-3.324218-7.515626-7.464844-7.535157zm0 0"/><path d="m81.484375 31.785156h-.101563c-4.144531 0-7.5 3.359375-7.5 7.5 0 4.144532 3.355469 7.5 7.5 7.5h.101563c4.144531 0 7.5-3.355468 7.5-7.5 0-4.140625-3.355469-7.5-7.5-7.5zm0 0"/><path d="m109.035156 31.867188h-.105468c-.015626 0-.023438 0-.035157 0-4.128906 0-7.480469 3.332031-7.5 7.464843-.019531 4.140625 3.324219 7.515625 7.464844 7.535157h.105469.035156c4.128906 0 7.480469-3.335938 7.5-7.46875.019531-4.140626-3.324219-7.511719-7.464844-7.53125zm0 0"/><path d="m461.058594 174.824219c4.144531 0 7.5-3.355469 7.5-7.5v-54.195313c0-8.785156-7.148438-15.933594-15.933594-15.933594h-393.25c-8.785156 0-15.933594 7.148438-15.933594 15.933594v229.789063c0 8.785156 7.148438 15.933593 15.933594 15.933593h236.355469c4.140625 0 7.5-3.359374 7.5-7.5 0-4.140624-3.359375-7.5-7.5-7.5h-236.355469c-.515625 0-.933594-.417968-.933594-.933593v-38.394531h395.117188v38.394531c0 .515625-.417969.933593-.933594.933593h-124.234375c-4.140625 0-7.5 3.359376-7.5 7.5 0 4.140626 3.359375 7.5 7.5 7.5h124.234375c8.785156 0 15.933594-7.148437 15.933594-15.933593v-142.929688c0-4.140625-3.355469-7.5-7.5-7.5-4.144532 0-7.5 3.359375-7.5 7.5v89.535157h-395.117188v-176.394532c0-.515625.417969-.933594.933594-.933594h393.25c.515625 0 .933594.417969.933594.933594v54.195313c0 4.144531 3.355468 7.5 7.5 7.5zm0 0"/><path d="m203.5 383.023438c0-4.140626-3.355469-7.5-7.5-7.5h-145.058594c-4.140625 0-7.5 3.359374-7.5 7.5 0 4.140624 3.359375 7.5 7.5 7.5h145.058594c4.144531 0 7.5-3.355469 7.5-7.5zm0 0"/><path d="m50.941406 396.425781c-4.140625 0-7.5 3.355469-7.5 7.5 0 4.140625 3.359375 7.5 7.5 7.5h58.058594c4.144531 0 7.5-3.359375 7.5-7.5 0-4.144531-3.355469-7.5-7.5-7.5zm0 0"/><path d="m461.058594 375.523438h-32.890625c-4.144531 0-7.5 3.359374-7.5 7.5 0 4.140624 3.355469 7.5 7.5 7.5h32.890625c4.140625 0 7.5-3.359376 7.5-7.5 0-4.140626-3.359375-7.5-7.5-7.5zm0 0"/><path d="m461.058594 396.425781h-32.890625c-4.144531 0-7.5 3.355469-7.5 7.5 0 4.140625 3.355469 7.5 7.5 7.5h32.890625c4.140625 0 7.5-3.359375 7.5-7.5 0-4.144531-3.359375-7.5-7.5-7.5zm0 0"/><path d="m401.894531 375.523438c-4.140625 0-7.5 3.359374-7.5 7.5 0 4.140624 3.359375 7.5 7.5 7.5h.105469c4.144531 0 7.5-3.359376 7.5-7.5 0-4.140626-3.355469-7.5-7.5-7.5zm0 0"/><path d="m381.894531 375.523438c-4.140625 0-7.5 3.359374-7.5 7.5 0 4.140624 3.359375 7.5 7.5 7.5h.105469c4.144531 0 7.5-3.359376 7.5-7.5 0-4.140626-3.355469-7.5-7.5-7.5zm0 0"/><path d="m190.554688 336.367188c1.472656 1.558593 3.457031 2.34375 5.445312 2.34375 1.851562 0 3.703125-.679688 5.15625-2.050782l7.417969-7.023437c1.5-1.417969 2.347656-3.386719 2.347656-5.449219 0-2.058594-.847656-4.03125-2.347656-5.445312l-7.417969-7.023438c-3.007812-2.847656-7.757812-2.714844-10.605469.292969-2.847656 3.007812-2.714843 7.753906.292969 10.601562l1.664062 1.574219-1.664062 1.574219c-3.007812 2.847656-3.140625 7.59375-.289062 10.605469zm0 0"/><path d="m104.945312 312.011719c-2.84375-3.007813-7.59375-3.136719-10.601562-.292969l-7.421875 7.023438c-1.496094 1.417968-2.34375 3.386718-2.34375 5.449218 0 2.058594.847656 4.03125 2.34375 5.445313l7.421875 7.023437c1.449219 1.371094 3.304688 2.050782 5.152344 2.050782 1.988281 0 3.976562-.785157 5.449218-2.34375 2.847657-3.007813 2.714844-7.753907-.292968-10.601563l-1.664063-1.574219 1.664063-1.574218c3.011718-2.847657 3.144531-7.59375.292968-10.605469zm0 0"/><path d="m109.5 317.167969v14.042969c0 4.144531 3.355469 7.5 7.5 7.5s7.5-3.355469 7.5-7.5v-14.042969c0-4.140625-3.355469-7.5-7.5-7.5s-7.5 3.355469-7.5 7.5zm0 0"/><path d="m245.132812 336.367188c1.472657 1.558593 3.457032 2.34375 5.445313 2.34375 1.851563 0 3.707031-.679688 5.15625-2.050782l7.421875-7.023437c1.496094-1.417969 2.34375-3.386719 2.34375-5.449219 0-2.058594-.847656-4.03125-2.34375-5.445312l-7.421875-7.023438c-3.007813-2.847656-7.757813-2.714844-10.601563.292969-2.851562 3.007812-2.71875 7.753906.289063 10.601562l1.664063 1.574219-1.664063 1.574219c-3.007813 2.847656-3.136719 7.59375-.289063 10.605469zm0 0"/><path d="m225.578125 317.167969v14.042969c0 4.144531 3.359375 7.5 7.5 7.5 4.144531 0 7.5-3.355469 7.5-7.5v-14.042969c0-4.140625-3.355469-7.5-7.5-7.5-4.140625 0-7.5 3.355469-7.5 7.5zm0 0"/><path d="m140 317.167969v14.042969c0 4.144531 3.355469 7.5 7.5 7.5s7.5-3.355469 7.5-7.5v-14.042969c0-4.140625-3.355469-7.5-7.5-7.5s-7.5 3.355469-7.5 7.5zm0 0"/><path d="m157.5 317.167969v14.042969c0 4.144531 3.355469 7.5 7.5 7.5s7.5-3.355469 7.5-7.5v-14.042969c0-4.140625-3.355469-7.5-7.5-7.5s-7.5 3.355469-7.5 7.5zm0 0"/><path d="m234.835938 160.289062c-5.480469-3.164062-12.023438-3.164062-17.5 0-5.480469 3.164063-8.75 8.828126-8.75 15.15625v56.007813c0 6.328125 3.269531 11.992187 8.75 15.15625 2.738281 1.582031 5.742187 2.375 8.75 2.375 3.003906 0 6.011718-.792969 8.75-2.375l48.519531-28.003906c5.480469-3.164063 8.75-8.828125 8.75-15.15625s-3.269531-11.992188-8.75-15.15625zm41.019531 45.324219-48.519531 28.007813c-1.089844.625-2.03125.269531-2.5 0-.46875-.269532-1.25-.910156-1.25-2.167969v-56.007813c0-1.257812.78125-1.898437 1.25-2.167968.273437-.15625.71875-.347656 1.257812-.347656.375 0 .796875.09375 1.242188.347656l48.519531 28.007812c1.085937.625 1.25 1.625 1.25 2.164063 0 .539062-.164063 1.539062-1.25 2.164062zm0 0"/></svg>